<?xml version="1.0" encoding="utf-8"?>
<!-- Generator: Adobe Illustrator 24.0.1, SVG Export Plug-In . SVG Version: 6.00 Build 0)  -->
<svg version="1.1" id="Calque_1" xmlns="http://www.w3.org/2000/svg" xmlns:xlink="http://www.w3.org/1999/xlink" x="0px" y="0px"
	 viewBox="0 0 85 85" style="enable-background:new 0 0 85 85;" xml:space="preserve">
<style type="text/css">
	.st0{fill:#FFFFFF;}
</style>
<g>
	<path class="st0" d="M56.5,33.6c-0.5-2.4-1.8-4.1-4.2-4.8c-1.6-0.5-3.2-0.6-4.8-0.6c-2.8,0-5.6,0-8.4,0c-1.8,0-3.7,0-5.5,0.3
		c-2.7,0.4-4.4,2-5,4.6c-0.4,1.7-0.4,3.5-0.5,5.2c0,3.1,0,6.1,0,9.2c0,1.3,0.1,2.7,0.3,4c0.5,2.5,1.9,4.2,4.5,4.9
		c1.3,0.3,2.6,0.4,4,0.4c3.3,0,6.5,0,9.8,0c1.6,0,3.3,0,4.9-0.4c2.4-0.5,4-1.9,4.7-4.3c0.3-1.1,0.4-2.3,0.4-3.5c0-2.2,0-4.4,0-6.6
		c0,0,0,0,0,0c0-1.3,0-2.6,0-3.9C56.8,36.6,56.8,35.1,56.5,33.6z M42.5,51.5c-4.9,0-9-4-9-9c0-4.9,4-9,9-9c4.9,0,9,4,9,9
		C51.5,47.4,47.5,51.5,42.5,51.5z M51.8,35.3c-1.2,0-2.1-0.9-2.1-2.1c0-1.2,0.9-2.1,2.1-2.1c1.2,0,2.1,0.9,2.1,2.1
		C53.9,34.4,53,35.3,51.8,35.3z"/>
	<path class="st0" d="M42.5,36.7c-3.2,0-5.8,2.6-5.8,5.7c0,3.2,2.6,5.9,5.8,5.9c3.2,0,5.8-2.6,5.8-5.8
		C48.3,39.3,45.8,36.7,42.5,36.7z"/>
	<path class="st0" d="M42.5,14.2c-15.7,0-28.3,12.7-28.3,28.3s12.7,28.3,28.3,28.3c15.7,0,28.3-12.7,28.3-28.3S58.2,14.2,42.5,14.2z
		 M60,47.5c0,0.2-0.1,0.4-0.1,0.7c0,1.5-0.1,3.1-0.5,4.6c-0.8,2.9-2.5,5.1-5.3,6.2c-1.6,0.7-3.3,0.9-5,0.9C45,60,41,60,37,60
		c-1.5,0-3-0.1-4.4-0.5c-3.5-0.8-5.8-2.9-6.8-6.4c-0.5-1.7-0.6-3.4-0.6-5.2c0-3.7,0-7.3,0-11c0-1.5,0.1-3,0.5-4.4
		c0.8-3.2,2.7-5.5,5.8-6.6c1.5-0.6,3.1-0.7,4.7-0.7c0.6,0,1.1,0,1.7-0.1c3.2,0,6.5,0,9.7,0c0.2,0,0.5,0.1,0.7,0.1
		c1.5,0,2.9,0.1,4.3,0.4c3.1,0.7,5.4,2.5,6.6,5.6c0.6,1.6,0.8,3.4,0.8,5.1c0,0.5,0,1,0.1,1.5C60,41,60,44.2,60,47.5z"/>
</g>
</svg>
